<?xml version="1.0" encoding="UTF-8" standalone="no"?>
<!-- Created with Inkscape (http://www.inkscape.org/) -->

<svg
   xmlns:dc="http://purl.org/dc/elements/1.1/"
   xmlns:cc="http://creativecommons.org/ns#"
   xmlns:rdf="http://www.w3.org/1999/02/22-rdf-syntax-ns#"
   xmlns:svg="http://www.w3.org/2000/svg"
   xmlns="http://www.w3.org/2000/svg"
   xmlns:sodipodi="http://sodipodi.sourceforge.net/DTD/sodipodi-0.dtd"
   xmlns:inkscape="http://www.inkscape.org/namespaces/inkscape"
   width="186.40085mm"
   height="61.571835mm"
   viewBox="0 0 186.40085 61.571835"
   version="1.1"
   id="svg8"
   inkscape:version="0.92.4 (5da689c313, 2019-01-14)"
   sodipodi:docname="cartes.svg">
  <defs
     id="defs2" />
  <sodipodi:namedview
     id="base"
     pagecolor="#ffffff"
     bordercolor="#666666"
     borderopacity="1.0"
     inkscape:pageopacity="0.0"
     inkscape:pageshadow="2"
     inkscape:zoom="0.35"
     inkscape:cx="-248.32351"
     inkscape:cy="123.36024"
     inkscape:document-units="mm"
     inkscape:current-layer="layer1"
     showgrid="false"
     fit-margin-top="0"
     fit-margin-left="0"
     fit-margin-right="0"
     fit-margin-bottom="0"
     inkscape:window-width="1920"
     inkscape:window-height="1001"
     inkscape:window-x="-9"
     inkscape:window-y="1341"
     inkscape:window-maximized="1" />
  <metadata
     id="metadata5">
    <rdf:RDF>
      <cc:Work
         rdf:about="">
        <dc:format>image/svg+xml</dc:format>
        <dc:type
           rdf:resource="http://purl.org/dc/dcmitype/StillImage" />
        <dc:title></dc:title>
      </cc:Work>
    </rdf:RDF>
  </metadata>
  <g
     inkscape:label="Calque 1"
     inkscape:groupmode="layer"
     id="layer1"
     transform="translate(-2.7913098,-17.82107)">
    <g
       id="g1644"
       transform="matrix(0.60350239,0,0,0.60350239,1.1067477,7.0660115)">
      <g
         transform="translate(47.625,-0.75595319)"
         id="g1136">
        <rect
           style="opacity:1;fill:#ffffff;fill-opacity:1;stroke:#000000;stroke-width:0.17211826;stroke-linecap:round;stroke-linejoin:bevel;stroke-miterlimit:4;stroke-dasharray:none;stroke-dashoffset:0;stroke-opacity:1"
           id="rect824"
           width="71.352402"
           height="101.85206"
           x="-44.747631"
           y="18.663082"
           ry="7.275147" />
        <g
           id="g830"
           transform="matrix(0.35841744,0,0,0.35841744,-43.28833,14.107591)">
          <path
             sodipodi:nodetypes="ccccc"
             inkscape:connector-curvature="0"
             id="rect815"
             d="m 58.024944,-9.6327925 c 13.49166,5.3588263 31.697297,6.1226051 45.435826,0 -5.437173,14.0289615 -5.561468,31.2764045 0,45.4358215 -15.134934,-4.830809 -30.969551,-6.417966 -45.435826,0 5.750425,-14.573643 5.092812,-31.8703454 0,-45.4358215 z"
             style="opacity:1;fill:#ff0000;fill-opacity:1;stroke:#ff0000;stroke-width:0.26499999;stroke-linecap:round;stroke-linejoin:bevel;stroke-miterlimit:4;stroke-dasharray:none;stroke-dashoffset:0;stroke-opacity:1"
             transform="rotate(45)" />
          <path
             style="opacity:1;fill:#ff0000;fill-opacity:1;stroke:#ff0000;stroke-width:0.26499999;stroke-linecap:round;stroke-linejoin:bevel;stroke-miterlimit:4;stroke-dasharray:none;stroke-dashoffset:0;stroke-opacity:1"
             d="m 143.8472,34.218418 c 5.75078,13.329307 18.08403,26.74271 32.12798,32.127981 -13.76464,6.075312 -26.04831,18.183206 -32.12798,32.127978 -7.28612,-14.117913 -17.36059,-26.436967 -32.12798,-32.127981 14.37129,-6.238957 26.1369,-18.934575 32.12798,-32.127978 z"
             id="path818"
             inkscape:connector-curvature="0"
             sodipodi:nodetypes="ccccc" />
          <path
             sodipodi:nodetypes="ccccc"
             inkscape:connector-curvature="0"
             id="path820"
             d="m 143.8472,211.11128 c 5.75078,13.3293 18.08403,26.74271 32.12798,32.12798 -13.76464,6.07531 -26.04831,18.1832 -32.12798,32.12797 -7.28612,-14.11791 -17.36059,-26.43696 -32.12798,-32.12798 14.37129,-6.23895 26.1369,-18.93457 32.12798,-32.12797 z"
             style="opacity:1;fill:#ff0000;fill-opacity:1;stroke:#ff0000;stroke-width:0.26499999;stroke-linecap:round;stroke-linejoin:bevel;stroke-miterlimit:4;stroke-dasharray:none;stroke-dashoffset:0;stroke-opacity:1" />
          <path
             style="opacity:1;fill:#ff0000;fill-opacity:1;stroke:#ff0000;stroke-width:0.26499999;stroke-linecap:round;stroke-linejoin:bevel;stroke-miterlimit:4;stroke-dasharray:none;stroke-dashoffset:0;stroke-opacity:1"
             d="m 47.085295,211.11128 c 5.75078,13.3293 18.08403,26.74271 32.12798,32.12798 -13.76464,6.07531 -26.04831,18.1832 -32.12798,32.12797 -7.28612,-14.11791 -17.36059,-26.43696 -32.12798,-32.12798 14.37129,-6.23895 26.1369,-18.93457 32.12798,-32.12797 z"
             id="path822"
             inkscape:connector-curvature="0"
             sodipodi:nodetypes="ccccc" />
        </g>
      </g>
      <g
         transform="translate(-16.121155,-18.559576)"
         id="g1521">
        <rect
           ry="7.275147"
           y="36.466705"
           x="98.112061"
           height="101.85206"
           width="71.352402"
           id="rect1128"
           style="opacity:1;fill:#ffffff;fill-opacity:1;stroke:#000000;stroke-width:0.17211826;stroke-linecap:round;stroke-linejoin:bevel;stroke-miterlimit:4;stroke-dasharray:none;stroke-dashoffset:0;stroke-opacity:1" />
        <g
           id="g1465">
          <g
             id="g885"
             transform="matrix(0.53508088,0,0,0.64264799,43.858939,17.979393)">
            <g
               id="g859">
              <path
                 style="opacity:1;fill:#000000;fill-opacity:1;stroke:#000000;stroke-width:0.43198401;stroke-linecap:round;stroke-linejoin:bevel;stroke-miterlimit:4;stroke-dasharray:none;stroke-dashoffset:0;stroke-opacity:1"
                 d="m 137.88216,56.190155 c -0.69962,4.71111 -3.63186,3.091035 -6.9199,9.888972 -3.07963,-6.707253 -6.3138,-5.331636 -6.91991,-9.888972 -0.68636,-5.160805 3.09815,-9.888975 6.91991,-9.888972 3.82176,4e-6 7.61953,5.177862 6.9199,9.888972 z"
                 id="path840"
                 inkscape:connector-curvature="0"
                 sodipodi:nodetypes="zcssz" />
              <path
                 sodipodi:nodetypes="zcssz"
                 inkscape:connector-curvature="0"
                 id="path849"
                 d="m 140.85123,72.999027 c -4.71111,-0.69962 -3.09104,-3.63186 -9.88897,-6.9199 6.70725,-3.07963 5.33163,-6.3138 9.88897,-6.91991 5.1608,-0.68636 9.88897,3.09815 9.88897,6.91991 0,3.82176 -5.17786,7.61953 -9.88897,6.9199 z"
                 style="opacity:1;fill:#000000;fill-opacity:1;stroke:#000000;stroke-width:0.43198401;stroke-linecap:round;stroke-linejoin:bevel;stroke-miterlimit:4;stroke-dasharray:none;stroke-dashoffset:0;stroke-opacity:1" />
              <path
                 style="opacity:1;fill:#000000;fill-opacity:1;stroke:#000000;stroke-width:0.43198401;stroke-linecap:round;stroke-linejoin:bevel;stroke-miterlimit:4;stroke-dasharray:none;stroke-dashoffset:0;stroke-opacity:1"
                 d="m 121.07329,72.999027 c 4.71111,-0.69962 3.09104,-3.63186 9.88897,-6.9199 -6.70725,-3.07963 -5.33163,-6.3138 -9.88897,-6.91991 -5.1608,-0.68636 -9.88897,3.09815 -9.88897,6.91991 0,3.82176 5.17786,7.61953 9.88897,6.9199 z"
                 id="path851"
                 inkscape:connector-curvature="0"
                 sodipodi:nodetypes="zcssz" />
              <path
                 style="fill:#000000;stroke:#000000;stroke-width:0.26458332px;stroke-linecap:butt;stroke-linejoin:miter;stroke-opacity:1"
                 d="m 130.96226,66.079126 c -1.11281,4.10307 -2.25968,8.156482 -4.94468,11.559407 h 9.75534 c -1.98012,-3.429505 -4.19517,-6.594702 -4.81066,-11.559407"
                 id="path853"
                 inkscape:connector-curvature="0"
                 sodipodi:nodetypes="cccc" />
            </g>
            <path
               sodipodi:nodetypes="zcssz"
               inkscape:connector-curvature="0"
               id="path861"
               d="m 137.88216,56.190155 c -0.69962,4.71111 -3.63186,3.091035 -6.9199,9.888972 -3.07963,-6.707253 -6.3138,-5.331636 -6.91991,-9.888972 -0.68636,-5.160805 3.09815,-9.888975 6.91991,-9.888972 3.82176,4e-6 7.61953,5.177862 6.9199,9.888972 z"
               style="opacity:1;fill:#000000;fill-opacity:1;stroke:#000000;stroke-width:0.43198401;stroke-linecap:round;stroke-linejoin:bevel;stroke-miterlimit:4;stroke-dasharray:none;stroke-dashoffset:0;stroke-opacity:1" />
            <path
               style="opacity:1;fill:#000000;fill-opacity:1;stroke:#000000;stroke-width:0.43198401;stroke-linecap:round;stroke-linejoin:bevel;stroke-miterlimit:4;stroke-dasharray:none;stroke-dashoffset:0;stroke-opacity:1"
               d="m 140.85123,72.999027 c -4.71111,-0.69962 -3.09104,-3.63186 -9.88897,-6.9199 6.70725,-3.07963 5.33163,-6.3138 9.88897,-6.91991 5.1608,-0.68636 9.88897,3.09815 9.88897,6.91991 0,3.82176 -5.17786,7.61953 -9.88897,6.9199 z"
               id="path863"
               inkscape:connector-curvature="0"
               sodipodi:nodetypes="zcssz" />
            <path
               sodipodi:nodetypes="zcssz"
               inkscape:connector-curvature="0"
               id="path865"
               d="m 121.07329,72.999027 c 4.71111,-0.69962 3.09104,-3.63186 9.88897,-6.9199 -6.70725,-3.07963 -5.33163,-6.3138 -9.88897,-6.91991 -5.1608,-0.68636 -9.88897,3.09815 -9.88897,6.91991 0,3.82176 5.17786,7.61953 9.88897,6.9199 z"
               style="opacity:1;fill:#000000;fill-opacity:1;stroke:#000000;stroke-width:0.43198401;stroke-linecap:round;stroke-linejoin:bevel;stroke-miterlimit:4;stroke-dasharray:none;stroke-dashoffset:0;stroke-opacity:1" />
            <path
               sodipodi:nodetypes="cccc"
               inkscape:connector-curvature="0"
               id="path867"
               d="m 130.96226,66.079126 c -1.11281,4.10307 -2.25968,8.156482 -4.94468,11.559407 h 9.75534 c -1.98012,-3.429505 -4.19517,-6.594702 -4.81066,-11.559407"
               style="fill:#000000;stroke:#000000;stroke-width:0.26458332px;stroke-linecap:butt;stroke-linejoin:miter;stroke-opacity:1" />
          </g>
          <g
             transform="matrix(0.53508088,0,0,0.64264799,83.56678,17.979393)"
             id="g905">
            <g
               id="g895">
              <path
                 sodipodi:nodetypes="zcssz"
                 inkscape:connector-curvature="0"
                 id="path887"
                 d="m 137.88216,56.190155 c -0.69962,4.71111 -3.63186,3.091035 -6.9199,9.888972 -3.07963,-6.707253 -6.3138,-5.331636 -6.91991,-9.888972 -0.68636,-5.160805 3.09815,-9.888975 6.91991,-9.888972 3.82176,4e-6 7.61953,5.177862 6.9199,9.888972 z"
                 style="opacity:1;fill:#000000;fill-opacity:1;stroke:#000000;stroke-width:0.43198401;stroke-linecap:round;stroke-linejoin:bevel;stroke-miterlimit:4;stroke-dasharray:none;stroke-dashoffset:0;stroke-opacity:1" />
              <path
                 style="opacity:1;fill:#000000;fill-opacity:1;stroke:#000000;stroke-width:0.43198401;stroke-linecap:round;stroke-linejoin:bevel;stroke-miterlimit:4;stroke-dasharray:none;stroke-dashoffset:0;stroke-opacity:1"
                 d="m 140.85123,72.999027 c -4.71111,-0.69962 -3.09104,-3.63186 -9.88897,-6.9199 6.70725,-3.07963 5.33163,-6.3138 9.88897,-6.91991 5.1608,-0.68636 9.88897,3.09815 9.88897,6.91991 0,3.82176 -5.17786,7.61953 -9.88897,6.9199 z"
                 id="path889"
                 inkscape:connector-curvature="0"
                 sodipodi:nodetypes="zcssz" />
              <path
                 sodipodi:nodetypes="zcssz"
                 inkscape:connector-curvature="0"
                 id="path891"
                 d="m 121.07329,72.999027 c 4.71111,-0.69962 3.09104,-3.63186 9.88897,-6.9199 -6.70725,-3.07963 -5.33163,-6.3138 -9.88897,-6.91991 -5.1608,-0.68636 -9.88897,3.09815 -9.88897,6.91991 0,3.82176 5.17786,7.61953 9.88897,6.9199 z"
                 style="opacity:1;fill:#000000;fill-opacity:1;stroke:#000000;stroke-width:0.43198401;stroke-linecap:round;stroke-linejoin:bevel;stroke-miterlimit:4;stroke-dasharray:none;stroke-dashoffset:0;stroke-opacity:1" />
              <path
                 sodipodi:nodetypes="cccc"
                 inkscape:connector-curvature="0"
                 id="path893"
                 d="m 130.96226,66.079126 c -1.11281,4.10307 -2.25968,8.156482 -4.94468,11.559407 h 9.75534 c -1.98012,-3.429505 -4.19517,-6.594702 -4.81066,-11.559407"
                 style="fill:#000000;stroke:#000000;stroke-width:0.26458332px;stroke-linecap:butt;stroke-linejoin:miter;stroke-opacity:1" />
            </g>
            <path
               style="opacity:1;fill:#000000;fill-opacity:1;stroke:#000000;stroke-width:0.43198401;stroke-linecap:round;stroke-linejoin:bevel;stroke-miterlimit:4;stroke-dasharray:none;stroke-dashoffset:0;stroke-opacity:1"
               d="m 137.88216,56.190155 c -0.69962,4.71111 -3.63186,3.091035 -6.9199,9.888972 -3.07963,-6.707253 -6.3138,-5.331636 -6.91991,-9.888972 -0.68636,-5.160805 3.09815,-9.888975 6.91991,-9.888972 3.82176,4e-6 7.61953,5.177862 6.9199,9.888972 z"
               id="path897"
               inkscape:connector-curvature="0"
               sodipodi:nodetypes="zcssz" />
            <path
               sodipodi:nodetypes="zcssz"
               inkscape:connector-curvature="0"
               id="path899"
               d="m 140.85123,72.999027 c -4.71111,-0.69962 -3.09104,-3.63186 -9.88897,-6.9199 6.70725,-3.07963 5.33163,-6.3138 9.88897,-6.91991 5.1608,-0.68636 9.88897,3.09815 9.88897,6.91991 0,3.82176 -5.17786,7.61953 -9.88897,6.9199 z"
               style="opacity:1;fill:#000000;fill-opacity:1;stroke:#000000;stroke-width:0.43198401;stroke-linecap:round;stroke-linejoin:bevel;stroke-miterlimit:4;stroke-dasharray:none;stroke-dashoffset:0;stroke-opacity:1" />
            <path
               style="opacity:1;fill:#000000;fill-opacity:1;stroke:#000000;stroke-width:0.43198401;stroke-linecap:round;stroke-linejoin:bevel;stroke-miterlimit:4;stroke-dasharray:none;stroke-dashoffset:0;stroke-opacity:1"
               d="m 121.07329,72.999027 c 4.71111,-0.69962 3.09104,-3.63186 9.88897,-6.9199 -6.70725,-3.07963 -5.33163,-6.3138 -9.88897,-6.91991 -5.1608,-0.68636 -9.88897,3.09815 -9.88897,6.91991 0,3.82176 5.17786,7.61953 9.88897,6.9199 z"
               id="path901"
               inkscape:connector-curvature="0"
               sodipodi:nodetypes="zcssz" />
            <path
               style="fill:#000000;stroke:#000000;stroke-width:0.26458332px;stroke-linecap:butt;stroke-linejoin:miter;stroke-opacity:1"
               d="m 130.96226,66.079126 c -1.11281,4.10307 -2.25968,8.156482 -4.94468,11.559407 h 9.75534 c -1.98012,-3.429505 -4.19517,-6.594702 -4.81066,-11.559407"
               id="path903"
               inkscape:connector-curvature="0"
               sodipodi:nodetypes="cccc" />
          </g>
          <g
             id="g1411">
            <g
               transform="matrix(0.53508088,0,0,0.64264799,63.712864,47.594825)"
               id="g925">
              <g
                 id="g915">
                <path
                   sodipodi:nodetypes="zcssz"
                   inkscape:connector-curvature="0"
                   id="path907"
                   d="m 137.88216,56.190155 c -0.69962,4.71111 -3.63186,3.091035 -6.9199,9.888972 -3.07963,-6.707253 -6.3138,-5.331636 -6.91991,-9.888972 -0.68636,-5.160805 3.09815,-9.888975 6.91991,-9.888972 3.82176,4e-6 7.61953,5.177862 6.9199,9.888972 z"
                   style="opacity:1;fill:#000000;fill-opacity:1;stroke:#000000;stroke-width:0.43198401;stroke-linecap:round;stroke-linejoin:bevel;stroke-miterlimit:4;stroke-dasharray:none;stroke-dashoffset:0;stroke-opacity:1" />
                <path
                   style="opacity:1;fill:#000000;fill-opacity:1;stroke:#000000;stroke-width:0.43198401;stroke-linecap:round;stroke-linejoin:bevel;stroke-miterlimit:4;stroke-dasharray:none;stroke-dashoffset:0;stroke-opacity:1"
                   d="m 140.85123,72.999027 c -4.71111,-0.69962 -3.09104,-3.63186 -9.88897,-6.9199 6.70725,-3.07963 5.33163,-6.3138 9.88897,-6.91991 5.1608,-0.68636 9.88897,3.09815 9.88897,6.91991 0,3.82176 -5.17786,7.61953 -9.88897,6.9199 z"
                   id="path909"
                   inkscape:connector-curvature="0"
                   sodipodi:nodetypes="zcssz" />
                <path
                   sodipodi:nodetypes="zcssz"
                   inkscape:connector-curvature="0"
                   id="path911"
                   d="m 121.07329,72.999027 c 4.71111,-0.69962 3.09104,-3.63186 9.88897,-6.9199 -6.70725,-3.07963 -5.33163,-6.3138 -9.88897,-6.91991 -5.1608,-0.68636 -9.88897,3.09815 -9.88897,6.91991 0,3.82176 5.17786,7.61953 9.88897,6.9199 z"
                   style="opacity:1;fill:#000000;fill-opacity:1;stroke:#000000;stroke-width:0.43198401;stroke-linecap:round;stroke-linejoin:bevel;stroke-miterlimit:4;stroke-dasharray:none;stroke-dashoffset:0;stroke-opacity:1" />
                <path
                   sodipodi:nodetypes="cccc"
                   inkscape:connector-curvature="0"
                   id="path913"
                   d="m 130.96226,66.079126 c -1.11281,4.10307 -2.25968,8.156482 -4.94468,11.559407 h 9.75534 c -1.98012,-3.429505 -4.19517,-6.594702 -4.81066,-11.559407"
                   style="fill:#000000;stroke:#000000;stroke-width:0.26458332px;stroke-linecap:butt;stroke-linejoin:miter;stroke-opacity:1" />
              </g>
              <path
                 style="opacity:1;fill:#000000;fill-opacity:1;stroke:#000000;stroke-width:0.43198401;stroke-linecap:round;stroke-linejoin:bevel;stroke-miterlimit:4;stroke-dasharray:none;stroke-dashoffset:0;stroke-opacity:1"
                 d="m 137.88216,56.190155 c -0.69962,4.71111 -3.63186,3.091035 -6.9199,9.888972 -3.07963,-6.707253 -6.3138,-5.331636 -6.91991,-9.888972 -0.68636,-5.160805 3.09815,-9.888975 6.91991,-9.888972 3.82176,4e-6 7.61953,5.177862 6.9199,9.888972 z"
                 id="path917"
                 inkscape:connector-curvature="0"
                 sodipodi:nodetypes="zcssz" />
              <path
                 sodipodi:nodetypes="zcssz"
                 inkscape:connector-curvature="0"
                 id="path919"
                 d="m 140.85123,72.999027 c -4.71111,-0.69962 -3.09104,-3.63186 -9.88897,-6.9199 6.70725,-3.07963 5.33163,-6.3138 9.88897,-6.91991 5.1608,-0.68636 9.88897,3.09815 9.88897,6.91991 0,3.82176 -5.17786,7.61953 -9.88897,6.9199 z"
                 style="opacity:1;fill:#000000;fill-opacity:1;stroke:#000000;stroke-width:0.43198401;stroke-linecap:round;stroke-linejoin:bevel;stroke-miterlimit:4;stroke-dasharray:none;stroke-dashoffset:0;stroke-opacity:1" />
              <path
                 style="opacity:1;fill:#000000;fill-opacity:1;stroke:#000000;stroke-width:0.43198401;stroke-linecap:round;stroke-linejoin:bevel;stroke-miterlimit:4;stroke-dasharray:none;stroke-dashoffset:0;stroke-opacity:1"
                 d="m 121.07329,72.999027 c 4.71111,-0.69962 3.09104,-3.63186 9.88897,-6.9199 -6.70725,-3.07963 -5.33163,-6.3138 -9.88897,-6.91991 -5.1608,-0.68636 -9.88897,3.09815 -9.88897,6.91991 0,3.82176 5.17786,7.61953 9.88897,6.9199 z"
                 id="path921"
                 inkscape:connector-curvature="0"
                 sodipodi:nodetypes="zcssz" />
              <path
                 style="fill:#000000;stroke:#000000;stroke-width:0.26458332px;stroke-linecap:butt;stroke-linejoin:miter;stroke-opacity:1"
                 d="m 130.96226,66.079126 c -1.11281,4.10307 -2.25968,8.156482 -4.94468,11.559407 h 9.75534 c -1.98012,-3.429505 -4.19517,-6.594702 -4.81066,-11.559407"
                 id="path923"
                 inkscape:connector-curvature="0"
                 sodipodi:nodetypes="cccc" />
            </g>
          </g>
          <g
             id="g1399">
            <g
               id="g935"
               transform="matrix(0.53508088,0,0,0.64264799,43.858939,77.210257)">
              <path
                 sodipodi:nodetypes="zcssz"
                 inkscape:connector-curvature="0"
                 id="path927"
                 d="m 137.88216,56.190155 c -0.69962,4.71111 -3.63186,3.091035 -6.9199,9.888972 -3.07963,-6.707253 -6.3138,-5.331636 -6.91991,-9.888972 -0.68636,-5.160805 3.09815,-9.888975 6.91991,-9.888972 3.82176,4e-6 7.61953,5.177862 6.9199,9.888972 z"
                 style="opacity:1;fill:#000000;fill-opacity:1;stroke:#000000;stroke-width:0.43198401;stroke-linecap:round;stroke-linejoin:bevel;stroke-miterlimit:4;stroke-dasharray:none;stroke-dashoffset:0;stroke-opacity:1" />
              <path
                 style="opacity:1;fill:#000000;fill-opacity:1;stroke:#000000;stroke-width:0.43198401;stroke-linecap:round;stroke-linejoin:bevel;stroke-miterlimit:4;stroke-dasharray:none;stroke-dashoffset:0;stroke-opacity:1"
                 d="m 140.85123,72.999027 c -4.71111,-0.69962 -3.09104,-3.63186 -9.88897,-6.9199 6.70725,-3.07963 5.33163,-6.3138 9.88897,-6.91991 5.1608,-0.68636 9.88897,3.09815 9.88897,6.91991 0,3.82176 -5.17786,7.61953 -9.88897,6.9199 z"
                 id="path929"
                 inkscape:connector-curvature="0"
                 sodipodi:nodetypes="zcssz" />
              <path
                 sodipodi:nodetypes="zcssz"
                 inkscape:connector-curvature="0"
                 id="path931"
                 d="m 121.07329,72.999027 c 4.71111,-0.69962 3.09104,-3.63186 9.88897,-6.9199 -6.70725,-3.07963 -5.33163,-6.3138 -9.88897,-6.91991 -5.1608,-0.68636 -9.88897,3.09815 -9.88897,6.91991 0,3.82176 5.17786,7.61953 9.88897,6.9199 z"
                 style="opacity:1;fill:#000000;fill-opacity:1;stroke:#000000;stroke-width:0.43198401;stroke-linecap:round;stroke-linejoin:bevel;stroke-miterlimit:4;stroke-dasharray:none;stroke-dashoffset:0;stroke-opacity:1" />
              <path
                 sodipodi:nodetypes="cccc"
                 inkscape:connector-curvature="0"
                 id="path933"
                 d="m 130.96226,66.079126 c -1.11281,4.10307 -2.25968,8.156482 -4.94468,11.559407 h 9.75534 c -1.98012,-3.429505 -4.19517,-6.594702 -4.81066,-11.559407"
                 style="fill:#000000;stroke:#000000;stroke-width:0.26458332px;stroke-linecap:butt;stroke-linejoin:miter;stroke-opacity:1" />
            </g>
            <path
               style="opacity:1;fill:#000000;fill-opacity:1;stroke:#000000;stroke-width:0.25331679;stroke-linecap:round;stroke-linejoin:bevel;stroke-miterlimit:4;stroke-dasharray:none;stroke-dashoffset:0;stroke-opacity:1"
               d="m 117.63705,113.32075 c -0.37436,3.02758 -1.94334,1.98644 -3.70271,6.35513 -1.64785,-4.31041 -3.37839,-3.42637 -3.70271,-6.35513 -0.36726,-3.31658 1.65776,-6.35513 3.70271,-6.35513 2.04495,0 4.07707,3.32754 3.70271,6.35513 z"
               id="path937"
               inkscape:connector-curvature="0"
               sodipodi:nodetypes="zcssz" />
            <path
               sodipodi:nodetypes="zcssz"
               inkscape:connector-curvature="0"
               id="path939"
               d="m 119.22574,124.12293 c -2.52083,-0.4496 -1.65396,-2.334 -5.2914,-4.44705 3.58892,-1.97912 2.85285,-4.05756 5.2914,-4.44707 2.76144,-0.44109 5.2914,1.99102 5.2914,4.44707 0,2.45604 -2.77058,4.89667 -5.2914,4.44705 z"
               style="opacity:1;fill:#000000;fill-opacity:1;stroke:#000000;stroke-width:0.25331679;stroke-linecap:round;stroke-linejoin:bevel;stroke-miterlimit:4;stroke-dasharray:none;stroke-dashoffset:0;stroke-opacity:1" />
            <path
               style="opacity:1;fill:#000000;fill-opacity:1;stroke:#000000;stroke-width:0.25331679;stroke-linecap:round;stroke-linejoin:bevel;stroke-miterlimit:4;stroke-dasharray:none;stroke-dashoffset:0;stroke-opacity:1"
               d="m 108.64294,124.12293 c 2.52083,-0.4496 1.65396,-2.334 5.2914,-4.44705 -3.58892,-1.97912 -2.85285,-4.05756 -5.2914,-4.44707 -2.76144,-0.44109 -5.2914,1.99102 -5.2914,4.44707 0,2.45604 2.77058,4.89667 5.2914,4.44705 z"
               id="path941"
               inkscape:connector-curvature="0"
               sodipodi:nodetypes="zcssz" />
            <path
               style="fill:#000000;stroke:#000000;stroke-width:0.15515248px;stroke-linecap:butt;stroke-linejoin:miter;stroke-opacity:1"
               d="m 113.93434,119.67587 c -0.59544,2.63683 -1.20911,5.24175 -2.6458,7.42863 h 5.21989 c -1.05952,-2.20396 -2.24475,-4.23807 -2.57409,-7.42863"
               id="path943"
               inkscape:connector-curvature="0"
               sodipodi:nodetypes="cccc" />
          </g>
          <g
             id="g1388">
            <g
               transform="matrix(0.53508088,0,0,0.64264799,83.56678,77.210257)"
               id="g965">
              <g
                 id="g955">
                <path
                   sodipodi:nodetypes="zcssz"
                   inkscape:connector-curvature="0"
                   id="path947"
                   d="m 137.88216,56.190155 c -0.69962,4.71111 -3.63186,3.091035 -6.9199,9.888972 -3.07963,-6.707253 -6.3138,-5.331636 -6.91991,-9.888972 -0.68636,-5.160805 3.09815,-9.888975 6.91991,-9.888972 3.82176,4e-6 7.61953,5.177862 6.9199,9.888972 z"
                   style="opacity:1;fill:#000000;fill-opacity:1;stroke:#000000;stroke-width:0.43198401;stroke-linecap:round;stroke-linejoin:bevel;stroke-miterlimit:4;stroke-dasharray:none;stroke-dashoffset:0;stroke-opacity:1" />
                <path
                   style="opacity:1;fill:#000000;fill-opacity:1;stroke:#000000;stroke-width:0.43198401;stroke-linecap:round;stroke-linejoin:bevel;stroke-miterlimit:4;stroke-dasharray:none;stroke-dashoffset:0;stroke-opacity:1"
                   d="m 140.85123,72.999027 c -4.71111,-0.69962 -3.09104,-3.63186 -9.88897,-6.9199 6.70725,-3.07963 5.33163,-6.3138 9.88897,-6.91991 5.1608,-0.68636 9.88897,3.09815 9.88897,6.91991 0,3.82176 -5.17786,7.61953 -9.88897,6.9199 z"
                   id="path949"
                   inkscape:connector-curvature="0"
                   sodipodi:nodetypes="zcssz" />
                <path
                   sodipodi:nodetypes="zcssz"
                   inkscape:connector-curvature="0"
                   id="path951"
                   d="m 121.07329,72.999027 c 4.71111,-0.69962 3.09104,-3.63186 9.88897,-6.9199 -6.70725,-3.07963 -5.33163,-6.3138 -9.88897,-6.91991 -5.1608,-0.68636 -9.88897,3.09815 -9.88897,6.91991 0,3.82176 5.17786,7.61953 9.88897,6.9199 z"
                   style="opacity:1;fill:#000000;fill-opacity:1;stroke:#000000;stroke-width:0.43198401;stroke-linecap:round;stroke-linejoin:bevel;stroke-miterlimit:4;stroke-dasharray:none;stroke-dashoffset:0;stroke-opacity:1" />
                <path
                   sodipodi:nodetypes="cccc"
                   inkscape:connector-curvature="0"
                   id="path953"
                   d="m 130.96226,66.079126 c -1.11281,4.10307 -2.25968,8.156482 -4.94468,11.559407 h 9.75534 c -1.98012,-3.429505 -4.19517,-6.594702 -4.81066,-11.559407"
                   style="fill:#000000;stroke:#000000;stroke-width:0.26458332px;stroke-linecap:butt;stroke-linejoin:miter;stroke-opacity:1" />
              </g>
              <path
                 style="opacity:1;fill:#000000;fill-opacity:1;stroke:#000000;stroke-width:0.43198401;stroke-linecap:round;stroke-linejoin:bevel;stroke-miterlimit:4;stroke-dasharray:none;stroke-dashoffset:0;stroke-opacity:1"
                 d="m 137.88216,56.190155 c -0.69962,4.71111 -3.63186,3.091035 -6.9199,9.888972 -3.07963,-6.707253 -6.3138,-5.331636 -6.91991,-9.888972 -0.68636,-5.160805 3.09815,-9.888975 6.91991,-9.888972 3.82176,4e-6 7.61953,5.177862 6.9199,9.888972 z"
                 id="path957"
                 inkscape:connector-curvature="0"
                 sodipodi:nodetypes="zcssz" />
              <path
                 sodipodi:nodetypes="zcssz"
                 inkscape:connector-curvature="0"
                 id="path959"
                 d="m 140.85123,72.999027 c -4.71111,-0.69962 -3.09104,-3.63186 -9.88897,-6.9199 6.70725,-3.07963 5.33163,-6.3138 9.88897,-6.91991 5.1608,-0.68636 9.88897,3.09815 9.88897,6.91991 0,3.82176 -5.17786,7.61953 -9.88897,6.9199 z"
                 style="opacity:1;fill:#000000;fill-opacity:1;stroke:#000000;stroke-width:0.43198401;stroke-linecap:round;stroke-linejoin:bevel;stroke-miterlimit:4;stroke-dasharray:none;stroke-dashoffset:0;stroke-opacity:1" />
              <path
                 style="opacity:1;fill:#000000;fill-opacity:1;stroke:#000000;stroke-width:0.43198401;stroke-linecap:round;stroke-linejoin:bevel;stroke-miterlimit:4;stroke-dasharray:none;stroke-dashoffset:0;stroke-opacity:1"
                 d="m 121.07329,72.999027 c 4.71111,-0.69962 3.09104,-3.63186 9.88897,-6.9199 -6.70725,-3.07963 -5.33163,-6.3138 -9.88897,-6.91991 -5.1608,-0.68636 -9.88897,3.09815 -9.88897,6.91991 0,3.82176 5.17786,7.61953 9.88897,6.9199 z"
                 id="path961"
                 inkscape:connector-curvature="0"
                 sodipodi:nodetypes="zcssz" />
              <path
                 style="fill:#000000;stroke:#000000;stroke-width:0.26458332px;stroke-linecap:butt;stroke-linejoin:miter;stroke-opacity:1"
                 d="m 130.96226,66.079126 c -1.11281,4.10307 -2.25968,8.156482 -4.94468,11.559407 h 9.75534 c -1.98012,-3.429505 -4.19517,-6.594702 -4.81066,-11.559407"
                 id="path963"
                 inkscape:connector-curvature="0"
                 sodipodi:nodetypes="cccc" />
            </g>
          </g>
        </g>
      </g>
      <g
         transform="translate(-0.35277239)"
         id="g1211">
        <g
           transform="translate(174.84814,-160.30065)"
           id="g1563">
          <rect
             style="opacity:1;fill:#ffffff;fill-opacity:1;stroke:#000000;stroke-width:0.17211826;stroke-linecap:round;stroke-linejoin:bevel;stroke-miterlimit:4;stroke-dasharray:none;stroke-dashoffset:0;stroke-opacity:1"
             id="rect1140"
             width="71.352402"
             height="101.85206"
             x="-13.390916"
             y="178.20778"
             ry="7.275147" />
          <g
             transform="translate(2.0638498,-1.4770851)"
             id="g1205">
            <path
               style="fill:#ff0000;stroke:#ff0000;stroke-width:0.26458332px;stroke-linecap:butt;stroke-linejoin:miter;stroke-opacity:1"
               d="m 20.512936,252.89097 c 0,0 -5.234011,-3.72504 -7.082643,-1.9377 -4.4932764,4.3443 7.216278,15.43481 7.216278,15.43481 0,0 10.709081,-11.13567 6.347652,-15.50164 -1.856216,-1.85814 -6.481287,2.00453 -6.481287,2.00453 z"
               id="path1197"
               inkscape:connector-curvature="0"
               sodipodi:nodetypes="cscsc" />
            <path
               sodipodi:nodetypes="cscsc"
               inkscape:connector-curvature="0"
               id="path1199"
               d="m 20.512936,197.28913 c 0,0 -5.234011,-3.72504 -7.082643,-1.9377 -4.4932764,4.3443 7.216278,15.43481 7.216278,15.43481 0,0 10.709081,-11.13567 6.347652,-15.50164 -1.856216,-1.85814 -6.481287,2.00453 -6.481287,2.00453 z"
               style="fill:#ff0000;stroke:#ff0000;stroke-width:0.26458332px;stroke-linecap:butt;stroke-linejoin:miter;stroke-opacity:1" />
          </g>
        </g>
      </g>
      <g
         transform="translate(142.10592,-160.30065)"
         id="g1557">
        <rect
           style="opacity:1;fill:#ffffff;fill-opacity:1;stroke:#000000;stroke-width:0.17211826;stroke-linecap:round;stroke-linejoin:bevel;stroke-miterlimit:4;stroke-dasharray:none;stroke-dashoffset:0;stroke-opacity:1"
           id="rect1138"
           width="71.352402"
           height="101.85206"
           x="98.112061"
           y="178.20778"
           ry="7.275147" />
        <g
           id="g1545"
           transform="translate(2.4522235,-2.8131628)">
          <path
             sodipodi:nodetypes="cscsc"
             inkscape:connector-curvature="0"
             id="path1201"
             d="m 111.93477,205.47746 c 0,0 -4.3649,2.94744 -5.90656,1.53321 -3.74717,-3.43744 6.01801,-12.21282 6.01801,-12.21282 0,0 8.93083,8.81112 5.29362,12.2657 -1.548,1.47025 -5.40507,-1.58609 -5.40507,-1.58609 z"
             style="fill:#000000;stroke:#000000;stroke-width:0.2149263px;stroke-linecap:butt;stroke-linejoin:miter;stroke-opacity:1" />
          <path
             style="fill:#000000;stroke:#000000;stroke-width:0.13292709px;stroke-linecap:butt;stroke-linejoin:miter;stroke-opacity:1"
             d="m 111.93497,205.48287 c -0.59799,1.92725 -1.21428,3.83118 -2.65712,5.42957 h 5.24221 c -1.06405,-1.61087 -2.25434,-3.0976 -2.58509,-5.42957"
             id="path1376"
             inkscape:connector-curvature="0"
             sodipodi:nodetypes="cccc" />
          <g
             transform="translate(39.288621,58.264757)"
             id="g1529">
            <path
               sodipodi:nodetypes="cscsc"
               inkscape:connector-curvature="0"
               id="path1523"
               d="m 111.93477,205.47746 c 0,0 -4.3649,2.94744 -5.90656,1.53321 -3.74717,-3.43744 6.01801,-12.21282 6.01801,-12.21282 0,0 8.93083,8.81112 5.29362,12.2657 -1.548,1.47025 -5.40507,-1.58609 -5.40507,-1.58609 z"
               style="fill:#000000;stroke:#000000;stroke-width:0.2149263px;stroke-linecap:butt;stroke-linejoin:miter;stroke-opacity:1" />
            <path
               style="fill:#000000;stroke:#000000;stroke-width:0.13292709px;stroke-linecap:butt;stroke-linejoin:miter;stroke-opacity:1"
               d="m 111.93497,205.48287 c -0.59799,1.92725 -1.21428,3.83118 -2.65712,5.42957 h 5.24221 c -1.06405,-1.61087 -2.25434,-3.0976 -2.58509,-5.42957"
               id="path1525"
               inkscape:connector-curvature="0"
               sodipodi:nodetypes="cccc" />
          </g>
          <g
             id="g1535"
             transform="translate(19.644311,28.280316)">
            <path
               style="fill:#000000;stroke:#000000;stroke-width:0.2149263px;stroke-linecap:butt;stroke-linejoin:miter;stroke-opacity:1"
               d="m 111.93477,205.47746 c 0,0 -4.3649,2.94744 -5.90656,1.53321 -3.74717,-3.43744 6.01801,-12.21282 6.01801,-12.21282 0,0 8.93083,8.81112 5.29362,12.2657 -1.548,1.47025 -5.40507,-1.58609 -5.40507,-1.58609 z"
               id="path1531"
               inkscape:connector-curvature="0"
               sodipodi:nodetypes="cscsc" />
            <path
               sodipodi:nodetypes="cccc"
               inkscape:connector-curvature="0"
               id="path1533"
               d="m 111.93497,205.48287 c -0.59799,1.92725 -1.21428,3.83118 -2.65712,5.42957 h 5.24221 c -1.06405,-1.61087 -2.25434,-3.0976 -2.58509,-5.42957"
               style="fill:#000000;stroke:#000000;stroke-width:0.13292709px;stroke-linecap:butt;stroke-linejoin:miter;stroke-opacity:1" />
          </g>
        </g>
      </g>
    </g>
  </g>
</svg>
